<svg xmlns="http://www.w3.org/2000/svg" width="128" height="128" viewBox="0 0 64 64" fill="none">
  <defs>
    <linearGradient id="c" x1="0" y1="0" x2="1" y2="1">
      <stop offset="0" stop-color="#FF8A80"/>
      <stop offset="1" stop-color="#F44336"/>
    </linearGradient>
  </defs>
  <circle cx="32" cy="32" r="20" fill="url(#c)" opacity=".2"/>
  <g stroke="#F44336" stroke-width="2.4" stroke-linecap="round" stroke-linejoin="round">
    <path d="M32 14l2 4a14 14 0 014.9 2l4.5-1 2 3.5-3.1 3.4c.4 1.6.4 3.3 0 4.9l3.1 3.4-2 3.5-4.5-1a14 14 0 01-4.9 2l-2 4h-4l-2-4a14 14 0 01-4.9-2l-4.5 1-2-3.5 3.1-3.4a14 14 0 010-4.9L12.6 22 14.6 18l4.5 1a14 14 0 014.9-2l2-4h6z"/>
    <circle cx="32" cy="32" r="6"/>
  </g>
</svg>


